<?xml version="1.0" encoding="UTF-8" standalone="no"?>
<!DOCTYPE svg PUBLIC "-//W3C//DTD SVG 1.1//EN"
 "http://www.w3.org/Graphics/SVG/1.1/DTD/svg11.dtd">
<!-- Generated by graphviz version 2.40.1 (20161225.0304)
 -->
<!-- Title: dependencies Pages: 1 -->
<svg width="1224pt" height="284pt"
 viewBox="0.00 0.00 1224.00 284.00" xmlns="http://www.w3.org/2000/svg" xmlns:xlink="http://www.w3.org/1999/xlink">
<g id="graph0" class="graph" transform="scale(1 1) rotate(0) translate(4 280)">
<title>dependencies</title>
<polygon fill="#ffffff" stroke="transparent" points="-4,4 -4,-280 1220,-280 1220,4 -4,4"/>
<text text-anchor="start" x="587.0091" y="-42.4" font-family="sans-serif" font-weight="bold" font-size="14.00" fill="#000000">Legend</text>
<polygon fill="#ffffb3" stroke="transparent" points="374,-10 374,-30 394,-30 394,-10 374,-10"/>
<text text-anchor="start" x="397.629" y="-15.4" font-family="sans-serif" font-size="14.00" fill="#000000"> &#160;Declarations</text>
<polygon fill="#8dd3c7" stroke="transparent" points="487,-10 487,-30 507,-30 507,-10 487,-10"/>
<text text-anchor="start" x="510.7251" y="-15.4" font-family="sans-serif" font-size="14.00" fill="#000000"> &#160;Module</text>
<polygon fill="#80b1d3" stroke="transparent" points="573,-10 573,-30 593,-30 593,-10 573,-10"/>
<text text-anchor="start" x="596.7812" y="-15.4" font-family="sans-serif" font-size="14.00" fill="#000000"> &#160;Bootstrap</text>
<polygon fill="#fdb462" stroke="transparent" points="670,-10 670,-30 690,-30 690,-10 670,-10"/>
<text text-anchor="start" x="693.6732" y="-15.4" font-family="sans-serif" font-size="14.00" fill="#000000"> &#160;Providers</text>
<polygon fill="#fb8072" stroke="transparent" points="766,-10 766,-30 786,-30 786,-10 766,-10"/>
<text text-anchor="start" x="789.7258" y="-15.4" font-family="sans-serif" font-size="14.00" fill="#000000"> &#160;Exports</text>
<g id="clust1" class="cluster">
<title>cluster_MatKeyboardModule</title>
<polygon fill="none" stroke="#000000" stroke-dasharray="1,5" points="8,-70 8,-268 1208,-268 1208,-70 8,-70"/>
</g>
<g id="clust2" class="cluster">
<title>cluster_MatKeyboardModule_declarations</title>
<polygon fill="none" stroke="#000000" points="228,-78 228,-130 1200,-130 1200,-78 228,-78"/>
</g>
<g id="clust9" class="cluster">
<title>cluster_MatKeyboardModule_exports</title>
<polygon fill="none" stroke="#000000" points="208,-208 208,-260 994,-260 994,-208 208,-208"/>
</g>
<g id="clust11" class="cluster">
<title>cluster_MatKeyboardModule_providers</title>
<polygon fill="none" stroke="#000000" points="16,-78 16,-130 220,-130 220,-78 16,-78"/>
</g>
<!-- MatKeyboardKebabCasePipe -->
<g id="node1" class="node">
<title>MatKeyboardKebabCasePipe</title>
<polygon fill="#ffffb3" stroke="#000000" points="1192.3806,-122 1009.6194,-122 1009.6194,-86 1192.3806,-86 1192.3806,-122"/>
<text text-anchor="middle" x="1101" y="-99.8" font-family="Times,serif" font-size="14.00" fill="#000000">MatKeyboardKebabCasePipe</text>
</g>
<!-- MatKeyboardModule -->
<g id="node6" class="node">
<title>MatKeyboardModule</title>
<polygon fill="#8dd3c7" stroke="#000000" points="655.7963,-187 652.7963,-191 631.7963,-191 628.7963,-187 518.2037,-187 518.2037,-151 655.7963,-151 655.7963,-187"/>
<text text-anchor="middle" x="587" y="-164.8" font-family="Times,serif" font-size="14.00" fill="#000000">MatKeyboardModule</text>
</g>
<!-- MatKeyboardKebabCasePipe&#45;&gt;MatKeyboardModule -->
<g id="edge1" class="edge">
<title>MatKeyboardKebabCasePipe&#45;&gt;MatKeyboardModule</title>
<path fill="none" stroke="#000000" d="M1101,-122.1061C1101,-141.3391 1101,-169 1101,-169 1101,-169 665.787,-169 665.787,-169"/>
<polygon fill="#000000" stroke="#000000" points="665.787,-165.5001 655.787,-169 665.7869,-172.5001 665.787,-165.5001"/>
</g>
<!-- MatKeyboardComponent -->
<g id="node2" class="node">
<title>MatKeyboardComponent</title>
<polygon fill="#ffffb3" stroke="#000000" points="991.5786,-122 832.4214,-122 832.4214,-86 991.5786,-86 991.5786,-122"/>
<text text-anchor="middle" x="912" y="-99.8" font-family="Times,serif" font-size="14.00" fill="#000000">MatKeyboardComponent</text>
</g>
<!-- MatKeyboardComponent&#45;&gt;MatKeyboardModule -->
<g id="edge2" class="edge">
<title>MatKeyboardComponent&#45;&gt;MatKeyboardModule</title>
<path fill="none" stroke="#000000" d="M909.375,-122.027C909.375,-138.3976 909.375,-160 909.375,-160 909.375,-160 665.7621,-160 665.7621,-160"/>
<polygon fill="#000000" stroke="#000000" points="665.7621,-156.5001 655.7621,-160 665.7621,-163.5001 665.7621,-156.5001"/>
</g>
<!-- MatKeyboardContainerComponent -->
<g id="node3" class="node">
<title>MatKeyboardContainerComponent</title>
<polygon fill="#ffffb3" stroke="#000000" points="814.2864,-122 599.7136,-122 599.7136,-86 814.2864,-86 814.2864,-122"/>
<text text-anchor="middle" x="707" y="-99.8" font-family="Times,serif" font-size="14.00" fill="#000000">MatKeyboardContainerComponent</text>
</g>
<!-- MatKeyboardContainerComponent&#45;&gt;MatKeyboardModule -->
<g id="edge3" class="edge">
<title>MatKeyboardContainerComponent&#45;&gt;MatKeyboardModule</title>
<path fill="none" stroke="#000000" d="M627.7525,-122.1061C627.7525,-122.1061 627.7525,-140.991 627.7525,-140.991"/>
<polygon fill="#000000" stroke="#000000" points="624.2525,-140.9909 627.7525,-150.991 631.2525,-140.991 624.2525,-140.9909"/>
</g>
<!-- MatKeyboardKeyComponent -->
<g id="node4" class="node">
<title>MatKeyboardKeyComponent</title>
<polygon fill="#ffffb3" stroke="#000000" points="582.4002,-122 399.5998,-122 399.5998,-86 582.4002,-86 582.4002,-122"/>
<text text-anchor="middle" x="491" y="-99.8" font-family="Times,serif" font-size="14.00" fill="#000000">MatKeyboardKeyComponent</text>
</g>
<!-- MatKeyboardKeyComponent&#45;&gt;MatKeyboardModule -->
<g id="edge4" class="edge">
<title>MatKeyboardKeyComponent&#45;&gt;MatKeyboardModule</title>
<path fill="none" stroke="#000000" d="M550.276,-122.1061C550.276,-122.1061 550.276,-140.991 550.276,-140.991"/>
<polygon fill="#000000" stroke="#000000" points="546.776,-140.9909 550.276,-150.991 553.776,-140.991 546.776,-140.9909"/>
</g>
<!-- MatKeyboardDirective -->
<g id="node5" class="node">
<title>MatKeyboardDirective</title>
<polygon fill="#ffffb3" stroke="#000000" points="381.8291,-122 236.1709,-122 236.1709,-86 381.8291,-86 381.8291,-122"/>
<text text-anchor="middle" x="309" y="-99.8" font-family="Times,serif" font-size="14.00" fill="#000000">MatKeyboardDirective</text>
</g>
<!-- MatKeyboardDirective&#45;&gt;MatKeyboardModule -->
<g id="edge5" class="edge">
<title>MatKeyboardDirective&#45;&gt;MatKeyboardModule</title>
<path fill="none" stroke="#000000" d="M373.7895,-122.027C373.7895,-138.3976 373.7895,-160 373.7895,-160 373.7895,-160 508.0711,-160 508.0711,-160"/>
<polygon fill="#000000" stroke="#000000" points="508.0711,-163.5001 518.0711,-160 508.0711,-156.5001 508.0711,-163.5001"/>
</g>
<!-- MatKeyboardComponent  -->
<g id="node7" class="node">
<title>MatKeyboardComponent </title>
<polygon fill="#fb8072" stroke="#000000" points="986.0791,-252 823.9209,-252 823.9209,-216 986.0791,-216 986.0791,-252"/>
<text text-anchor="middle" x="905" y="-229.8" font-family="Times,serif" font-size="14.00" fill="#000000">MatKeyboardComponent </text>
</g>
<!-- MatKeyboardModule&#45;&gt;MatKeyboardComponent  -->
<g id="edge6" class="edge">
<title>MatKeyboardModule&#45;&gt;MatKeyboardComponent </title>
<path fill="none" stroke="#000000" stroke-dasharray="5,2" d="M655.7628,-178C727.0212,-178 828.0857,-178 828.0857,-178 828.0857,-178 828.0857,-205.973 828.0857,-205.973"/>
<polygon fill="#000000" stroke="#000000" points="824.5858,-205.973 828.0857,-215.973 831.5858,-205.973 824.5858,-205.973"/>
</g>
<!-- MatKeyboardContainerComponent  -->
<g id="node8" class="node">
<title>MatKeyboardContainerComponent </title>
<polygon fill="#fb8072" stroke="#000000" points="805.7863,-252 588.2137,-252 588.2137,-216 805.7863,-216 805.7863,-252"/>
<text text-anchor="middle" x="697" y="-229.8" font-family="Times,serif" font-size="14.00" fill="#000000">MatKeyboardContainerComponent </text>
</g>
<!-- MatKeyboardModule&#45;&gt;MatKeyboardContainerComponent  -->
<g id="edge7" class="edge">
<title>MatKeyboardModule&#45;&gt;MatKeyboardContainerComponent </title>
<path fill="none" stroke="#000000" stroke-dasharray="5,2" d="M621.8775,-187.1061C621.8775,-187.1061 621.8775,-205.991 621.8775,-205.991"/>
<polygon fill="#000000" stroke="#000000" points="618.3775,-205.9909 621.8775,-215.991 625.3775,-205.991 618.3775,-205.9909"/>
</g>
<!-- MatKeyboardKeyComponent  -->
<g id="node9" class="node">
<title>MatKeyboardKeyComponent </title>
<polygon fill="#fb8072" stroke="#000000" points="569.8998,-252 384.1002,-252 384.1002,-216 569.8998,-216 569.8998,-252"/>
<text text-anchor="middle" x="477" y="-229.8" font-family="Times,serif" font-size="14.00" fill="#000000">MatKeyboardKeyComponent </text>
</g>
<!-- MatKeyboardModule&#45;&gt;MatKeyboardKeyComponent  -->
<g id="edge8" class="edge">
<title>MatKeyboardModule&#45;&gt;MatKeyboardKeyComponent </title>
<path fill="none" stroke="#000000" stroke-dasharray="5,2" d="M544.151,-187.1061C544.151,-187.1061 544.151,-205.991 544.151,-205.991"/>
<polygon fill="#000000" stroke="#000000" points="540.651,-205.9909 544.151,-215.991 547.651,-205.991 540.651,-205.9909"/>
</g>
<!-- MatKeyboardDirective  -->
<g id="node10" class="node">
<title>MatKeyboardDirective </title>
<polygon fill="#fb8072" stroke="#000000" points="365.8294,-252 216.1706,-252 216.1706,-216 365.8294,-216 365.8294,-252"/>
<text text-anchor="middle" x="291" y="-229.8" font-family="Times,serif" font-size="14.00" fill="#000000">MatKeyboardDirective </text>
</g>
<!-- MatKeyboardModule&#45;&gt;MatKeyboardDirective  -->
<g id="edge9" class="edge">
<title>MatKeyboardModule&#45;&gt;MatKeyboardDirective </title>
<path fill="none" stroke="#000000" stroke-dasharray="5,2" d="M518.1018,-178C433.4377,-178 300.875,-178 300.875,-178 300.875,-178 300.875,-205.973 300.875,-205.973"/>
<polygon fill="#000000" stroke="#000000" points="297.3751,-205.973 300.875,-215.973 304.3751,-205.973 297.3751,-205.973"/>
</g>
<!-- MatKeyboardService -->
<g id="node11" class="node">
<title>MatKeyboardService</title>
<ellipse fill="#fdb462" stroke="#000000" cx="118" cy="-104" rx="93.7398" ry="18"/>
<text text-anchor="middle" x="118" y="-99.8" font-family="Times,serif" font-size="14.00" fill="#000000">MatKeyboardService</text>
</g>
<!-- MatKeyboardService&#45;&gt;MatKeyboardModule -->
<g id="edge10" class="edge">
<title>MatKeyboardService&#45;&gt;MatKeyboardModule</title>
<path fill="none" stroke="#000000" d="M118,-122.1061C118,-141.3391 118,-169 118,-169 118,-169 508.3011,-169 508.3011,-169"/>
<polygon fill="#000000" stroke="#000000" points="508.3011,-172.5001 518.3011,-169 508.3011,-165.5001 508.3011,-172.5001"/>
</g>
</g>
</svg>
